<svg width="140" height="183" viewBox="0 0 140 183" fill="none" xmlns="http://www.w3.org/2000/svg">
<path d="M48.5621 121.402C48.5621 109.964 57.9939 100.692 69.6287 100.692C81.2635 100.692 90.6953 109.964 90.6953 121.402C90.6953 132.839 81.2635 142.111 69.6287 142.111C57.9939 142.111 48.5621 132.839 48.5621 121.402Z" fill="url(#paint0_linear_501_1092)"/>
<path d="M48.5621 121.402C48.5621 109.964 57.9939 100.692 69.6287 100.692C81.2635 100.692 90.6953 109.964 90.6953 121.402C90.6953 132.839 81.2635 142.111 69.6287 142.111C57.9939 142.111 48.5621 132.839 48.5621 121.402Z" fill="#661AAE"/>
<path d="M17.4067 60.9385H95.7371V43.5275C95.7371 36.2729 93.1986 30.1065 88.1217 25.0283C83.0447 19.9501 76.8798 17.411 69.627 17.411C62.3742 17.411 56.2093 19.9501 51.1323 25.0283C46.0554 30.1065 43.5169 36.2729 43.5169 43.5275H26.1101C26.1101 31.4849 30.353 21.2197 38.8388 12.7318C47.3246 4.24393 57.5873 0 69.627 0C81.6667 0 91.9294 4.24393 100.415 12.7318C108.901 21.2197 113.144 31.4849 113.144 43.5275V60.9385H121.847C126.634 60.9385 130.732 62.6433 134.141 66.053C137.55 69.4626 139.254 73.5615 139.254 78.3495V165.404C139.254 170.193 137.55 174.291 134.141 177.701C130.732 181.111 126.634 182.815 121.847 182.815H17.4067C12.6199 182.815 8.52205 181.111 5.11323 177.701C1.70441 174.291 0 170.193 0 165.404V78.3495C0 73.5615 1.70441 69.4626 5.11323 66.053C8.52205 62.6433 12.6199 60.9385 17.4067 60.9385ZM17.4067 165.404H121.847V78.3495H17.4067V165.404Z" fill="#661AAE"/>
<defs>
<linearGradient id="paint0_linear_501_1092" x1="95.5252" y1="150.148" x2="49.045" y2="93.0989" gradientUnits="userSpaceOnUse">
<stop offset="0.0528846" stop-color="#3000EF"/>
<stop offset="0.923077" stop-color="#E90000"/>
</linearGradient>
</defs>
</svg>
